<?xml version="1.0" standalone="no"?>
<!DOCTYPE svg PUBLIC "-//W3C//DTD SVG 20010904//EN"
 "http://www.w3.org/TR/2001/REC-SVG-20010904/DTD/svg10.dtd">
<svg version="1.0" xmlns="http://www.w3.org/2000/svg"
 width="256.000000pt" height="256.000000pt" viewBox="0 0 256.000000 256.000000"
 preserveAspectRatio="xMidYMid meet">
<metadata>
Created by potrace 1.11, written by Peter Selinger 2001-2013
</metadata>
<g transform="translate(0.000000,256.000000) scale(0.100000,-0.100000)"
fill="#000000" stroke="none">
<path d="M1148 1688 c-26 -9 -28 -14 -28 -61 0 -125 21 -332 36 -347 11 -11
14 -11 14 -1 0 8 6 11 15 7 10 -4 15 1 15 14 0 11 7 20 15 20 9 0 15 -9 15
-25 0 -19 5 -25 23 -25 18 0 19 2 7 10 -13 8 -13 10 2 10 27 0 30 15 17 82 -7
35 -11 114 -10 176 1 63 -3 121 -9 132 -12 22 -64 26 -112 8z m78 -195 c-1
-56 -13 -80 -27 -52 -26 54 -38 92 -34 100 4 5 19 9 34 9 27 0 27 -1 27 -57z"/>
<path d="M857 1578 l-29 -10 7 -167 c4 -91 10 -181 15 -199 7 -26 5 -34 -10
-42 -26 -14 -40 -12 -40 5 0 9 -6 12 -16 8 -10 -4 -12 -8 -5 -13 16 -9 -31
-29 -85 -37 -41 -5 -44 -4 -44 18 0 20 2 21 11 9 9 -12 12 -13 16 -1 5 11 7
11 14 0 7 -11 11 -11 21 -1 12 12 14 57 9 295 l-1 47 -39 0 c-74 0 -71 9 -64
-190 6 -169 5 -178 -13 -183 -16 -4 -16 -5 4 -6 12 0 22 -7 22 -13 0 -10 3 -9
9 1 5 7 13 11 19 7 19 -11 176 25 194 46 9 10 37 26 62 34 25 9 48 20 52 25 9
16 -34 10 -51 -7 -19 -19 -29 -13 -21 13 4 14 16 18 50 18 36 0 43 2 34 13 -7
8 -13 77 -16 172 -4 151 -6 159 -26 164 -28 8 -46 6 -79 -6z m53 -128 c0 -5
-4 -10 -10 -10 -5 0 -10 5 -10 10 0 6 5 10 10 10 6 0 10 -4 10 -10z"/>
<path d="M1675 1500 c-4 -6 3 -10 14 -10 25 0 27 6 6 13 -8 4 -17 2 -20 -3z"/>
<path d="M1685 1429 c-11 -17 1 -21 15 -4 8 9 8 15 2 15 -6 0 -14 -5 -17 -11z"/>
<path d="M467 1413 c-16 -4 -18 -19 -16 -164 1 -134 3 -158 14 -149 8 7 18 9
23 6 5 -3 7 6 4 21 -5 24 -3 26 24 20 l29 -6 -3 132 c-4 150 -8 157 -75 140z"/>
<path d="M1692 1335 c0 -16 2 -22 5 -12 2 9 2 23 0 30 -3 6 -5 -1 -5 -18z"/>
<path d="M1380 1261 c0 -5 -8 -12 -17 -14 -10 -3 -1 -5 20 -6 27 -1 37 3 35
12 -6 15 -38 22 -38 8z"/>
<path d="M1680 1260 c0 -5 5 -10 10 -10 6 0 10 5 10 10 0 6 -4 10 -10 10 -5 0
-10 -4 -10 -10z"/>
<path d="M1040 1250 c0 -5 -7 -10 -15 -10 -8 0 -15 -7 -15 -15 0 -8 5 -15 11
-15 5 0 8 4 5 9 -4 5 7 12 24 16 38 8 49 25 16 25 -14 0 -26 -4 -26 -10z"/>
<path d="M1255 1250 c3 -5 24 -10 46 -10 24 0 38 4 34 10 -3 6 -24 10 -46 10
-24 0 -38 -4 -34 -10z"/>
<path d="M1180 1230 c0 -6 4 -9 9 -5 5 3 12 1 16 -5 8 -13 65 -13 65 0 0 5
-10 9 -22 8 -13 -1 -33 2 -45 6 -15 5 -23 3 -23 -4z"/>
<path d="M1680 1229 c0 -5 5 -7 10 -4 6 3 10 8 10 11 0 2 -4 4 -10 4 -5 0 -10
-5 -10 -11z"/>
<path d="M1067 1223 c-3 -5 6 -9 19 -9 13 -1 21 2 18 7 -6 11 -31 12 -37 2z"/>
<path d="M1310 1220 c0 -5 9 -10 20 -10 11 0 20 5 20 10 0 6 -9 10 -20 10 -11
0 -20 -4 -20 -10z"/>
<path d="M1362 1218 c4 -12 53 -19 76 -11 27 11 9 23 -34 23 -31 0 -44 -4 -42
-12z"/>
<path d="M1460 1214 c0 -8 5 -12 10 -9 6 3 10 10 10 16 0 5 -4 9 -10 9 -5 0
-10 -7 -10 -16z"/>
<path d="M1491 1214 c0 -11 3 -14 6 -6 3 7 2 16 -1 19 -3 4 -6 -2 -5 -13z"/>
<path d="M1694 1212 c-15 -10 -12 -82 4 -82 8 0 12 16 12 45 0 25 -1 45 -2 45
-2 0 -8 -4 -14 -8z"/>
<path d="M1725 1190 c-3 -5 -1 -10 4 -10 6 0 11 5 11 10 0 6 -2 10 -4 10 -3 0
-8 -4 -11 -10z"/>
<path d="M810 1180 c0 -6 7 -10 15 -10 8 0 15 2 15 4 0 2 -7 6 -15 10 -8 3
-15 1 -15 -4z"/>
<path d="M2223 1183 c-18 -7 -16 -33 2 -33 8 0 15 9 15 20 0 11 -1 20 -2 19
-2 0 -9 -3 -15 -6z"/>
<path d="M2310 1170 c0 -5 5 -10 10 -10 6 0 10 5 10 10 0 6 -4 10 -10 10 -5 0
-10 -4 -10 -10z"/>
<path d="M737 1159 c7 -7 15 -10 18 -7 3 3 -2 9 -12 12 -14 6 -15 5 -6 -5z"/>
<path d="M949 1153 c-11 -3 -15 -11 -12 -24 5 -19 11 -20 77 -14 47 5 75 13
83 24 11 15 12 14 13 -1 0 -10 4 -18 10 -18 5 0 7 7 4 15 -5 11 1 15 22 15 28
-1 28 -1 10 -15 -19 -14 -19 -15 7 -15 15 0 27 5 27 10 0 6 5 10 11 10 5 0 8
-4 5 -9 -10 -15 41 -22 164 -20 105 2 119 4 123 20 5 17 4 17 -22 1 l-26 -16
19 22 19 22 -259 -1 c-142 -1 -266 -3 -275 -6z"/>
<path d="M1531 1146 c2 -2 33 -6 69 -9 38 -3 57 -1 45 3 -19 8 -123 14 -114 6z"/>
<path d="M1920 1136 c0 -9 5 -16 10 -16 6 0 10 4 10 9 0 6 -4 13 -10 16 -5 3
-10 -1 -10 -9z"/>
<path d="M1954 1139 c-9 -15 1 -21 26 -17 21 3 21 3 1 15 -14 9 -22 9 -27 2z"/>
<path d="M2035 1140 c-3 -5 1 -10 9 -10 9 0 16 5 16 10 0 6 -4 10 -9 10 -6 0
-13 -4 -16 -10z"/>
<path d="M2143 1143 c9 -2 25 -2 35 0 9 3 1 5 -18 5 -19 0 -27 -2 -17 -5z"/>
<path d="M1530 1120 c0 -5 5 -10 10 -10 6 0 10 5 10 10 0 6 -4 10 -10 10 -5 0
-10 -4 -10 -10z"/>
<path d="M1685 1109 c-11 -16 -2 -19 40 -12 32 5 35 8 20 14 -29 11 -53 10
-60 -2z"/>
<path d="M520 1100 c0 -5 7 -7 15 -4 8 4 15 8 15 10 0 2 -7 4 -15 4 -8 0 -15
-4 -15 -10z"/>
<path d="M2065 1074 c-165 -18 -381 -43 -480 -54 -99 -12 -202 -23 -230 -26
-27 -3 -102 -12 -165 -20 -347 -43 -567 -65 -746 -74 -248 -12 -287 -12 -279
-1 8 14 -27 19 -53 7 -28 -12 -28 -22 4 -63 14 -18 28 -50 30 -71 4 -28 3 -33
-5 -22 -10 13 -12 13 -21 0 -6 -10 -10 -11 -10 -2 0 8 -18 12 -55 12 l-55 0 0
-380 0 -380 1280 0 1280 0 0 345 0 346 -62 -3 c-57 -3 -64 -5 -70 -28 -4 -14
-6 82 -4 213 l4 237 -32 -1 c-17 -1 -166 -16 -331 -35z m-1631 -273 c4 -5 -3
-7 -14 -4 -23 6 -26 13 -6 13 8 0 17 -4 20 -9z m-260 -26 c3 -8 1 -15 -4 -15
-6 0 -10 7 -10 15 0 8 2 15 4 15 2 0 6 -7 10 -15z m2286 -126 c0 -5 -4 -9 -10
-9 -5 0 -10 7 -10 16 0 8 5 12 10 9 6 -3 10 -10 10 -16z m40 -5 c0 -2 -7 -4
-15 -4 -8 0 -15 4 -15 10 0 5 7 7 15 4 8 -4 15 -8 15 -10z m-40 -56 c0 -16 -3
-19 -11 -11 -6 6 -8 16 -5 22 11 17 16 13 16 -11z m60 2 c0 -5 -9 -10 -19 -10
-11 0 -23 5 -26 10 -4 6 5 10 19 10 14 0 26 -4 26 -10z"/>
<path d="M405 1080 c-3 -5 -1 -10 4 -10 6 0 11 5 11 10 0 6 -2 10 -4 10 -3 0
-8 -4 -11 -10z"/>
<path d="M1485 1080 c-3 -5 -1 -10 4 -10 6 0 11 5 11 10 0 6 -2 10 -4 10 -3 0
-8 -4 -11 -10z"/>
<path d="M1510 1080 c0 -5 5 -10 11 -10 5 0 7 5 4 10 -3 6 -8 10 -11 10 -2 0
-4 -4 -4 -10z"/>
<path d="M338 1073 c-10 -2 -18 -8 -18 -12 0 -5 -31 -12 -70 -15 -38 -4 -70
-11 -70 -17 0 -5 5 -9 11 -9 8 0 8 -4 1 -13 -9 -10 -4 -13 22 -15 51 -4 257
26 272 39 28 23 -1 27 -91 13 -49 -7 -91 -11 -94 -9 -2 3 3 5 12 5 10 0 17 5
17 10 0 6 9 10 20 10 11 0 20 5 20 10 0 10 -3 11 -32 3z m-75 -50 c-7 -2 -21
-2 -30 0 -10 3 -4 5 12 5 17 0 24 -2 18 -5z"/>
<path d="M795 1039 c-121 -21 -233 -39 -250 -40 -26 -2 -25 -3 10 -8 22 -4 48
-3 57 1 9 4 90 20 180 34 123 19 167 22 183 14 13 -7 47 -8 100 -3 64 6 80 11
83 26 6 28 -112 20 -363 -24z"/>
<path d="M688 1063 c7 -3 16 -2 19 1 4 3 -2 6 -13 5 -11 0 -14 -3 -6 -6z"/>
<path d="M570 1050 c-8 -5 -10 -10 -5 -10 6 0 17 5 25 10 8 5 11 10 5 10 -5 0
-17 -5 -25 -10z"/>
<path d="M1190 1050 c0 -5 5 -10 11 -10 5 0 7 5 4 10 -3 6 -8 10 -11 10 -2 0
-4 -4 -4 -10z"/>
<path d="M1260 1037 c0 -23 26 -45 38 -32 3 3 0 5 -6 5 -7 0 -12 9 -12 19 0
11 -4 23 -10 26 -6 3 -10 -5 -10 -18z"/>
<path d="M528 1043 c7 -3 16 -2 19 1 4 3 -2 6 -13 5 -11 0 -14 -3 -6 -6z"/>
<path d="M448 983 c12 -2 32 -2 45 0 12 2 2 4 -23 4 -25 0 -35 -2 -22 -4z"/>
<path d="M358 973 c12 -2 30 -2 40 0 9 3 -1 5 -23 4 -22 0 -30 -2 -17 -4z"/>
<path d="M170 958 c-51 -15 -16 -23 44 -9 28 6 65 13 81 15 17 1 3 3 -30 4
-33 0 -76 -4 -95 -10z"/>
<path d="M100 930 c0 -5 7 -10 16 -10 8 0 12 5 9 10 -3 6 -10 10 -16 10 -5 0
-9 -4 -9 -10z"/>
</g>
</svg>
